<?xml version="1.0" standalone="no"?>
<!DOCTYPE svg PUBLIC "-//W3C//DTD SVG 20010904//EN"
 "http://www.w3.org/TR/2001/REC-SVG-20010904/DTD/svg10.dtd">
<svg version="1.0" xmlns="http://www.w3.org/2000/svg"
 width="192.000000pt" height="192.000000pt" viewBox="0 0 192.000000 192.000000"
 preserveAspectRatio="xMidYMid meet">
<metadata>
Created by potrace 1.14, written by Peter Selinger 2001-2017
</metadata>
<g transform="translate(0.000000,192.000000) scale(0.100000,-0.100000)"
fill="#000000" stroke="none">
<path d="M795 1905 c-127 -28 -259 -82 -349 -145 -73 -50 -200 -172 -245 -234
-24 -34 -61 -97 -82 -141 -36 -76 -38 -82 -28 -128 12 -53 5 -72 -16 -43 -13
16 -15 14 -25 -25 -6 -24 -13 -51 -15 -59 -3 -8 -5 -33 -6 -55 -1 -22 -5 -66
-11 -97 -33 -206 96 -530 285 -720 50 -50 324 -218 355 -218 11 0 25 7 32 15
13 16 40 21 40 7 0 -4 -5 -13 -12 -20 -22 -22 7 -35 87 -40 71 -4 75 -3 68 14
-7 18 -6 18 11 1 15 -14 36 -17 134 -17 285 0 492 131 665 419 34 57 83 127
110 154 46 49 67 91 52 105 -4 4 -16 -4 -26 -18 -44 -55 -159 -224 -194 -284
-46 -79 -114 -157 -168 -195 -47 -31 -141 -67 -201 -75 -50 -7 -40 3 49 49 94
49 198 136 273 228 66 80 71 90 46 80 -31 -11 -35 20 -6 44 15 11 24 25 19 29
-4 4 -17 -2 -30 -14 -60 -56 -113 8 -59 71 21 23 52 22 52 -2 0 -13 -8 -21
-22 -23 -13 -2 -24 -11 -26 -21 -5 -24 11 -21 47 9 25 21 34 23 51 14 20 -11
24 -20 21 -50 -1 -8 5 -4 13 10 23 38 20 45 -34 70 -55 26 -75 44 -66 59 4 6
29 0 63 -15 31 -14 62 -23 69 -20 24 9 15 21 -16 22 -69 3 -109 64 -73 112 24
32 61 39 101 18 29 -15 30 -15 34 9 5 22 1 25 -41 30 -75 11 -77 12 -78 53 -2
54 19 72 84 72 41 0 53 3 53 15 0 14 -13 15 -90 9 -79 -6 -90 -5 -90 9 0 9 11
19 23 23 18 4 23 11 20 28 -3 12 4 32 15 46 17 21 29 25 71 25 51 0 68 12 31
22 -11 3 -20 12 -20 21 0 12 -9 14 -44 9 -24 -4 -50 -8 -57 -9 -7 -2 -14 4
-16 13 -3 13 12 20 67 34 l72 18 -5 31 c-3 17 -17 66 -33 108 -15 43 -24 81
-21 85 12 11 74 -66 105 -132 17 -33 40 -93 52 -133 12 -40 24 -72 27 -72 15
0 -10 109 -46 206 -92 243 -254 424 -478 532 -72 35 -86 38 -127 32 -46 -7
-55 -3 -35 17 7 7 -9 14 -58 22 -37 7 -78 14 -91 17 -20 4 -22 2 -16 -22 l7
-27 -48 26 c-54 31 -103 33 -200 12z m94 -102 c5 -21 12 -65 16 -99 l7 -61
-39 -7 c-58 -9 -191 -67 -253 -108 -160 -108 -267 -257 -304 -425 -18 -80 -21
-245 -6 -311 10 -43 10 -45 -28 -87 -7 -8 -20 -15 -27 -15 -17 0 -55 39 -55
57 0 7 -7 13 -15 13 -21 0 -19 -16 5 -40 11 -11 20 -24 20 -30 0 -28 -55 11
-64 45 -10 38 6 57 60 75 77 26 70 43 -15 34 -61 -6 -71 -4 -71 9 0 11 15 17
56 22 49 7 55 10 52 29 -3 18 -10 21 -58 21 -42 0 -55 3 -55 15 0 11 18 17 63
24 51 7 62 12 62 27 0 22 -22 24 -69 8 -38 -13 -71 -5 -52 14 6 7 31 17 54 23
l42 12 -43 17 c-28 12 -42 24 -42 37 0 23 1 23 59 -7 51 -25 61 -24 61 7 0 12
-7 18 -24 18 -60 0 -92 75 -51 120 19 21 69 27 80 10 9 -15 35 -12 35 4 0 13
-51 40 -77 41 -14 0 -42 34 -43 51 0 7 17 12 41 12 30 1 39 -3 36 -13 -4 -8 6
-18 23 -25 45 -19 51 -3 14 34 -40 40 -42 56 -11 92 27 31 74 36 93 9 7 -9 20
-15 29 -13 12 2 9 10 -16 41 -19 24 -29 44 -25 54 6 14 13 10 45 -21 61 -59
86 -26 30 39 -27 30 -29 36 -14 41 11 5 29 -5 55 -31 45 -44 60 -33 25 19 -31
45 -31 53 -2 77 29 24 47 24 47 -1 0 -11 -4 -20 -10 -20 -18 0 -10 -36 13 -58
22 -21 57 -16 43 6 -9 15 14 27 46 23 16 -1 28 2 28 8 0 5 -21 11 -47 13 -44
3 -48 5 -51 30 -2 20 3 31 22 43 30 20 70 16 74 -7 2 -12 -5 -18 -30 -21 -29
-3 -29 -4 9 -5 33 -2 46 -8 58 -26 15 -22 19 -23 56 -13 31 7 39 13 34 26 -4
9 -9 30 -12 47 -6 39 24 74 63 74 21 0 24 4 19 20 -3 11 -3 24 0 30 12 20 24
10 34 -27z m86 -68 c0 -43 3 -50 20 -50 17 0 21 8 25 50 4 36 9 50 20 50 15 0
16 -5 12 -99 l-2 -43 -43 -1 c-68 -2 -74 8 -69 111 2 31 6 38 20 35 13 -3 17
-14 17 -53z m345 26 c0 -14 -52 -154 -60 -164 -4 -5 -26 -3 -49 3 -62 17 -79
64 -40 114 18 23 28 27 63 24 32 -2 42 1 44 15 4 17 42 25 42 8z m32 -131
c-27 -48 -28 -70 -3 -70 12 0 29 17 46 46 22 37 29 43 41 33 13 -10 12 -15 -2
-37 -9 -14 -25 -40 -36 -59 -19 -31 -48 -45 -48 -23 0 6 -5 10 -12 10 -19 0
-48 32 -48 52 0 19 21 58 49 91 10 12 18 14 25 7 8 -8 4 -22 -12 -50z m-272
-44 c106 -23 218 -86 295 -167 36 -38 65 -74 65 -79 0 -6 -16 8 -36 30 -20 22
-43 40 -51 40 -8 0 -12 4 -9 9 8 12 -21 34 -46 36 -11 1 -28 12 -38 25 l-17
23 -8 -34 c-7 -31 -8 -32 -12 -9 -8 53 -14 71 -22 66 -5 -3 -6 -18 -4 -33 l4
-28 -14 30 c-14 30 -14 30 -21 7 -5 -13 -5 -44 -1 -70 6 -42 6 -44 -10 -28
-20 19 -95 18 -95 -1 0 -20 -31 -15 -57 9 -20 18 -23 19 -23 5 0 -21 -2 -21
-45 -3 -19 8 -35 11 -35 6 0 -7 -74 -7 -112 -1 -4 0 -5 12 -2 26 4 26 -10 35
-20 13 -3 -9 -8 -8 -16 5 -18 28 -68 49 -101 42 -16 -4 -29 -4 -29 0 0 12 149
77 197 85 77 12 193 11 263 -4z m450 -23 c17 -14 30 -35 30 -47 0 -22 -67 -96
-87 -96 -22 0 -14 25 17 55 33 32 38 53 14 62 -10 4 -29 -8 -54 -32 -34 -33
-40 -36 -46 -21 -5 12 6 30 37 62 24 24 47 44 51 44 5 0 22 -12 38 -27z m138
-75 c2 -8 -12 -23 -32 -33 -38 -21 -37 -31 4 -37 14 -1 26 -10 28 -19 2 -13
-5 -16 -34 -15 -35 1 -38 -1 -52 -42 -12 -38 -16 -42 -28 -30 -13 12 -12 19 1
51 17 41 17 42 -20 25 -17 -7 -29 -8 -35 -2 -7 7 15 30 66 68 76 56 96 63 102
34z m-1016 -82 c10 -15 10 -19 1 -23 -20 -7 -15 -31 6 -38 26 -8 159 -150 212
-226 39 -55 45 -59 83 -60 288 -10 350 -15 321 -27 -16 -6 -38 -17 -48 -23
-11 -6 -22 -8 -25 -5 -3 3 0 6 6 6 7 0 12 5 12 10 0 6 -55 10 -146 10 l-146 0
46 -84 c25 -46 46 -91 46 -100 0 -29 94 -21 165 13 33 16 80 38 105 48 25 10
65 30 90 45 25 15 70 32 100 38 30 6 62 13 71 15 25 8 29 -37 14 -130 -19
-120 -33 -165 -52 -165 -10 0 -14 -6 -10 -20 3 -11 0 -20 -6 -20 -7 0 -6 -4 3
-9 12 -8 10 -17 -10 -61 -27 -57 -80 -114 -140 -150 -23 -14 -67 -42 -99 -63
-77 -50 -181 -87 -245 -87 -217 0 -360 62 -497 215 -81 91 -107 132 -145 230
-23 61 -28 88 -31 205 l-4 135 38 105 c44 119 111 215 191 273 l47 34 17 -36
c10 -20 23 -44 30 -55z m98 -8 c0 -10 -67 -11 -73 0 -3 4 13 7 34 7 21 1 39
-3 39 -7z m550 3 c0 -5 -7 -11 -15 -15 -8 -3 -12 -12 -9 -21 3 -8 2 -15 -4
-15 -18 0 -42 12 -42 21 0 4 6 6 14 3 8 -3 16 3 19 15 5 20 37 30 37 12z m410
-81 c25 -25 26 -72 1 -94 -10 -9 -38 -18 -62 -19 -37 -2 -45 2 -58 25 -40 69
62 145 119 88z m-431 -69 c14 -25 2 -35 -20 -15 -17 16 -49 13 -49 -3 0 -4 14
-16 31 -25 25 -15 28 -21 19 -38 -16 -30 -44 -42 -74 -30 -14 5 -26 16 -26 25
0 20 20 19 35 -2 7 -9 19 -14 29 -10 23 9 20 22 -9 35 -14 7 -25 20 -25 31 0
45 69 70 89 32z m80 -43 l8 -33 16 38 c17 39 43 53 32 16 -18 -55 -47 -109
-60 -109 -8 0 -17 15 -21 35 -6 33 -24 50 -24 22 0 -17 -27 -54 -34 -46 -3 3
8 34 25 69 32 68 45 69 58 8z m151 12 c8 -16 8 -20 -4 -20 -8 0 -16 5 -18 12
-5 13 -38 4 -38 -10 0 -5 11 -14 25 -20 21 -10 24 -17 19 -37 -7 -29 2 -32 27
-9 16 14 18 12 24 -26 4 -23 4 -44 1 -47 -3 -3 -56 -7 -118 -9 -111 -3 -116 0
-45 26 25 9 28 14 22 40 -5 23 -3 30 8 30 9 0 17 -5 19 -12 3 -7 12 -9 24 -4
18 7 18 8 -3 26 -27 22 -30 55 -5 69 27 16 50 13 62 -9z m-1179 -569 c34 -34
39 -79 11 -104 -24 -22 -34 -11 -26 30 7 35 -8 63 -33 63 -11 0 -13 -11 -7
-59 6 -56 5 -60 -19 -76 -29 -19 -55 -10 -81 27 -22 30 -20 61 4 83 18 16 20
16 26 1 3 -9 1 -23 -6 -30 -14 -18 3 -56 26 -56 12 0 14 10 8 59 -6 54 -4 60
17 75 33 22 46 20 80 -13z"/>
<path d="M817 1743 c-12 -12 -7 -50 8 -63 21 -17 45 -5 45 23 0 35 -33 60 -53
40z"/>
<path d="M303 1433 c-7 -2 -13 -14 -13 -24 0 -23 15 -17 30 12 11 19 6 22 -17
12z"/>
<path d="M346 1405 c-22 -34 -21 -52 3 -31 11 10 19 26 18 37 -2 24 -1 24 -21
-6z"/>
<path d="M198 1219 c-19 -11 -24 -34 -9 -43 5 -3 14 8 20 24 5 17 9 30 8 30
-1 0 -10 -5 -19 -11z"/>
<path d="M244 1195 c-4 -11 -9 -23 -11 -27 -2 -5 2 -8 10 -8 19 0 28 23 17 41
-7 11 -10 9 -16 -6z"/>
<path d="M230 772 c0 -18 12 -42 21 -42 14 0 10 26 -6 40 -9 8 -15 8 -15 2z"/>
<path d="M1198 1686 c-13 -29 -5 -56 17 -56 19 0 40 43 32 64 -9 24 -36 19
-49 -8z"/>
<path d="M840 1501 c0 -6 4 -13 10 -16 6 -3 7 1 4 9 -7 18 -14 21 -14 7z"/>
<path d="M910 1456 c0 -2 7 -9 15 -16 9 -7 15 -8 15 -2 0 5 -7 12 -15 16 -8 3
-15 4 -15 2z"/>
<path d="M1485 911 c-8 -15 3 -31 21 -31 9 0 14 7 12 17 -4 20 -24 28 -33 14z"/>
<path d="M1256 855 c-3 -9 -6 -30 -6 -46 0 -27 3 -30 23 -23 12 4 30 7 40 6 9
0 17 6 17 14 0 20 15 17 31 -7 18 -26 49 -16 49 17 0 22 -3 23 -55 20 -46 -3
-55 0 -53 13 4 22 -38 27 -46 6z m34 -39 c0 -11 -19 -15 -25 -6 -3 5 1 10 9
10 9 0 16 -2 16 -4z m100 -6 c0 -5 -5 -10 -11 -10 -5 0 -7 5 -4 10 3 6 8 10
11 10 2 0 4 -4 4 -10z"/>
<path d="M1424 795 c1 -25 2 -45 3 -45 8 0 53 83 48 88 -3 4 -10 0 -15 -8 -7
-11 -12 -11 -23 -2 -12 10 -14 5 -13 -33z"/>
<path d="M1498 808 c9 -9 15 -9 24 0 9 9 7 12 -12 12 -19 0 -21 -3 -12 -12z"/>
<path d="M1102 783 c4 -21 33 -25 33 -3 0 8 -8 16 -18 18 -14 3 -18 -1 -15
-15z"/>
<path d="M538 744 c-5 -41 12 -55 45 -35 13 9 22 9 26 3 10 -16 71 -12 71 5 0
7 5 13 10 13 6 0 10 -7 10 -15 0 -16 20 -16 33 0 4 7 10 6 15 0 10 -15 72 -18
72 -5 0 6 -6 8 -12 5 -7 -4 -5 0 5 8 9 8 17 17 17 21 0 13 -34 5 -53 -11 -19
-17 -19 -17 -12 6 6 20 4 23 -9 18 -11 -4 -16 -1 -17 11 0 13 -2 12 -9 -4 -6
-16 -15 -20 -34 -17 -20 4 -26 1 -27 -13 0 -18 -1 -18 -9 1 -7 18 -8 19 -15 3
-9 -22 -27 -24 -19 -3 4 9 0 15 -9 15 -8 0 -20 7 -27 15 -23 28 -47 18 -52
-21z m47 -4 c0 -8 -8 -16 -17 -18 -13 -2 -18 3 -18 18 0 15 5 20 18 18 9 -2
17 -10 17 -18z"/>
<path d="M841 722 l0 -27 10 24 9 24 30 -33 30 -33 9 24 c5 13 10 19 10 12 1
-13 101 -16 101 -3 0 5 3 16 6 24 5 13 0 16 -27 14 -19 -1 -39 -9 -46 -18 -11
-13 -12 -13 -13 2 0 14 -10 17 -60 17 -58 -1 -60 -1 -59 -27z m71 -4 c-7 -7
-12 -8 -12 -2 0 14 12 26 19 19 2 -3 -1 -11 -7 -17z"/>
<path d="M1256 718 c-14 -52 -10 -56 53 -56 53 0 60 2 64 22 4 19 4 19 6 -3 1
-24 1 -24 16 -5 11 15 14 16 15 4 0 -11 11 -16 38 -18 27 -1 32 1 17 7 -19 8
-19 8 3 15 37 12 16 24 -45 25 -42 0 -60 -4 -69 -17 -11 -14 -13 -15 -14 -2 0
15 -48 50 -68 50 -5 0 -12 -10 -16 -22z m39 -21 c0 -26 -20 -25 -23 2 -3 16 1
22 10 19 7 -3 13 -12 13 -21z"/>
<path d="M564 635 c-9 -23 10 -40 25 -22 9 11 8 17 -4 27 -12 10 -16 9 -21 -5z"/>
<path d="M551 567 c-6 -8 -12 -24 -13 -38 -4 -30 31 -38 56 -14 15 15 16 15
16 -2 1 -17 1 -17 14 0 16 21 36 22 36 2 0 -9 9 -15 25 -15 20 0 25 5 25 24 0
22 -4 25 -42 25 -24 -1 -60 -4 -80 -9 -29 -6 -35 -5 -31 6 3 8 14 14 24 14 10
0 19 5 19 10 0 15 -36 12 -49 -3z m139 -43 c0 -8 -5 -12 -10 -9 -6 4 -8 11 -5
16 9 14 15 11 15 -7z"/>
<path d="M838 543 c-5 -36 -3 -52 6 -42 9 11 16 79 8 79 -6 0 -12 -17 -14 -37z"/>
<path d="M726 528 c9 -31 11 -33 29 -18 10 8 15 9 15 1 0 -6 12 -11 28 -10 23
0 24 2 8 8 -18 7 -18 8 -3 14 9 3 17 11 17 17 0 14 -53 13 -68 -2 -9 -9 -12
-9 -12 0 0 7 -5 12 -11 12 -6 0 -8 -9 -3 -22z"/>
<path d="M868 530 c-7 -24 -3 -38 8 -28 3 4 4 17 2 30 l-3 23 -7 -25z"/>
<path d="M890 522 c0 -25 1 -25 15 -6 12 15 14 16 15 3 0 -11 10 -16 35 -17
19 -1 35 3 35 9 0 6 -6 7 -12 4 -7 -4 -5 0 5 8 26 22 22 24 -38 25 -53 0 -55
-1 -55 -26z"/>
<path d="M1015 541 c-3 -5 0 -13 7 -17 8 -5 6 -10 -8 -15 -18 -7 -17 -8 3 -8
26 -1 41 18 23 29 -10 6 -9 9 1 13 10 4 9 6 -3 6 -9 1 -19 -3 -23 -8z"/>
<path d="M1670 1288 c0 -7 5 -20 10 -28 8 -12 10 -11 10 7 0 12 -4 25 -10 28
-5 3 -10 0 -10 -7z"/>
<path d="M1617 1276 c-9 -22 1 -43 23 -49 17 -4 17 -2 7 22 -16 38 -24 44 -30
27z"/>
<path d="M1681 1042 c-8 -15 -7 -23 5 -33 22 -18 69 0 69 26 0 29 -59 34 -74
7z"/>
<path d="M1680 895 c-17 -20 16 -47 53 -43 27 3 59 31 47 41 -14 12 -90 14
-100 2z"/>
<path d="M1888 890 c-2 -6 -12 -12 -23 -14 -21 -3 -32 -33 -34 -98 -1 -28 3
-38 14 -38 8 0 15 -6 15 -12 1 -34 21 28 30 92 9 65 8 100 -2 70z"/>
<path d="M1647 736 c-10 -26 21 -51 59 -47 18 2 26 32 13 47 -15 18 -65 18
-72 0z"/>
</g>
</svg>
